HIERARCHY
ROOT Hips
{
  OFFSET 5.72205e-005 65.662 3.42586
  CHANNELS 6 Xposition Yposition Zposition Zrotation Xrotation Yrotation
  JOINT Chest
  {
    OFFSET 0 8.7983 -4.7612
    CHANNELS 6 Xposition Yposition Zposition Zrotation Xrotation Yrotation
    JOINT Chest2
    {
      OFFSET 0 8.0291 0.4195
      CHANNELS 6 Xposition Yposition Zposition Zrotation Xrotation Yrotation
      JOINT Chest3
      {
        OFFSET 0 9.9351 -2.2114
        CHANNELS 6 Xposition Yposition Zposition Zrotation Xrotation Yrotation
        JOINT Neck
        {
          OFFSET 0 22.3885 -0.4656
          CHANNELS 6 Xposition Yposition Zposition Zrotation Xrotation Yrotation
          JOINT Head
          {
            OFFSET -0.0001 12.643 3.4389
            CHANNELS 6 Xposition Yposition Zposition Zrotation Xrotation Yrotation
            End Site
            {
              OFFSET 0.0001 17.6655 0.5274
            }
          }
        }
        JOINT LeftCollar
        {
          OFFSET 2.2603 21.606 7.4023
          CHANNELS 6 Xposition Yposition Zposition Zrotation Xrotation Yrotation
          JOINT LeftShoulder
          {
            OFFSET 13.5163 -1.1332 -5.0146
            CHANNELS 6 Xposition Yposition Zposition Zrotation Xrotation Yrotation
            JOINT LeftElbow
            {
              OFFSET -0.0995 -28.05 -0.2431
              CHANNELS 6 Xposition Yposition Zposition Zrotation Xrotation Yrotation
              JOINT LeftWrist
              {
                OFFSET 0.0679 -23.3996 -0.1402
                CHANNELS 6 Xposition Yposition Zposition Zrotation Xrotation Yrotation
                JOINT LeftFinger1
                {
                  OFFSET 0.7932 -9.069 2.5189
                  CHANNELS 6 Xposition Yposition Zposition Zrotation Xrotation Yrotation
                  JOINT LeftFinger11
                  {
                    OFFSET -0.8272 -3.3923 0.5977
                    CHANNELS 6 Xposition Yposition Zposition Zrotation Xrotation Yrotation
                    JOINT LeftFinger12
                    {
                      OFFSET -0.5649 -2.3158 0.4082
                      CHANNELS 6 Xposition Yposition Zposition Zrotation Xrotation Yrotation
                      End Site
                      {
                        OFFSET -0.4919 -1.6479 0.2673
                      }
                    }
                  }
                }
                JOINT LeftFinger2
                {
                  OFFSET 0.9159 -9.2044 0.2193
                  CHANNELS 6 Xposition Yposition Zposition Zrotation Xrotation Yrotation
                  JOINT LeftFinger21
                  {
                    OFFSET 0.0117 -4.1944 -0.0248
                    CHANNELS 6 Xposition Yposition Zposition Zrotation Xrotation Yrotation
                    JOINT LeftFinger22
                    {
                      OFFSET 0.0071 -2.3249 -0.0142
                      CHANNELS 6 Xposition Yposition Zposition Zrotation Xrotation Yrotation
                      End Site
                      {
                        OFFSET -0.1475 -2.0882 0.0028
                      }
                    }
                  }
                }
                JOINT LeftFinger3
                {
                  OFFSET 0.6113 -8.7231 -2.0637
                  CHANNELS 6 Xposition Yposition Zposition Zrotation Xrotation Yrotation
                  JOINT LeftFinger31
                  {
                    OFFSET -0.1927 -3.8059 -0.2383
                    CHANNELS 6 Xposition Yposition Zposition Zrotation Xrotation Yrotation
                    JOINT LeftFinger32
                    {
                      OFFSET -0.1091 -2.1688 -0.1362
                      CHANNELS 6 Xposition Yposition Zposition Zrotation Xrotation Yrotation
                      End Site
                      {
                        OFFSET -0.2358 -1.9176 -0.0906
                      }
                    }
                  }
                }
                JOINT LeftFinger4
                {
                  OFFSET -0.6151 -8.0947 -3.5641
                  CHANNELS 6 Xposition Yposition Zposition Zrotation Xrotation Yrotation
                  JOINT LeftFinger41
                  {
                    OFFSET -0.4882 -2.341 -0.6462
                    CHANNELS 6 Xposition Yposition Zposition Zrotation Xrotation Yrotation
                    JOINT LeftFinger42
                    {
                      OFFSET -0.3575 -1.7167 -0.4742
                      CHANNELS 6 Xposition Yposition Zposition Zrotation Xrotation Yrotation
                      End Site
                      {
                        OFFSET -0.4187 -1.5237 -0.3496
                      }
                    }
                  }
                }
                JOINT LeftFinger0
                {
                  OFFSET -1.42 -1.8761 1.4223
                  CHANNELS 6 Xposition Yposition Zposition Zrotation Xrotation Yrotation
                  JOINT LeftFinger01
                  {
                    OFFSET -1.1471 -3.4929 2.6334
                    CHANNELS 6 Xposition Yposition Zposition Zrotation Xrotation Yrotation
                    JOINT LeftFinger02
                    {
                      OFFSET -0.823 -2.3 1.6571
                      CHANNELS 6 Xposition Yposition Zposition Zrotation Xrotation Yrotation
                      End Site
                      {
                        OFFSET -0.5822 -1.6914 1.1582
                      }
                    }
                  }
                }
              }
            }
          }
        }
        JOINT RightCollar
        {
          OFFSET -2.2603 21.606 7.4023
          CHANNELS 6 Xposition Yposition Zposition Zrotation Xrotation Yrotation
          JOINT RightShoulder
          {
            OFFSET -13.5187 -1.1334 -5.0155
            CHANNELS 6 Xposition Yposition Zposition Zrotation Xrotation Yrotation
            JOINT RightElbow
            {
              OFFSET 0.0994 -28.0499 -0.2431
              CHANNELS 6 Xposition Yposition Zposition Zrotation Xrotation Yrotation
              JOINT RightWrist
              {
                OFFSET -0.0679 -23.3996 -0.1402
                CHANNELS 6 Xposition Yposition Zposition Zrotation Xrotation Yrotation
                JOINT RightFinger1
                {
                  OFFSET -0.7932 -9.0691 2.5189
                  CHANNELS 6 Xposition Yposition Zposition Zrotation Xrotation Yrotation
                  JOINT RightFinger11
                  {
                    OFFSET 0.8272 -3.3923 0.5977
                    CHANNELS 6 Xposition Yposition Zposition Zrotation Xrotation Yrotation
                    JOINT RightFinger12
                    {
                      OFFSET 0.565 -2.3158 0.4082
                      CHANNELS 6 Xposition Yposition Zposition Zrotation Xrotation Yrotation
                      End Site
                      {
                        OFFSET 0.4919 -1.6479 0.2673
                      }
                    }
                  }
                }
                JOINT RightFinger2
                {
                  OFFSET -0.916 -9.2044 0.2193
                  CHANNELS 6 Xposition Yposition Zposition Zrotation Xrotation Yrotation
                  JOINT RightFinger21
                  {
                    OFFSET -0.0117 -4.1944 -0.0248
                    CHANNELS 6 Xposition Yposition Zposition Zrotation Xrotation Yrotation
                    JOINT RightFinger22
                    {
                      OFFSET -0.0071 -2.3249 -0.0142
                      CHANNELS 6 Xposition Yposition Zposition Zrotation Xrotation Yrotation
                      End Site
                      {
                        OFFSET 0.1475 -2.0882 0.0028
                      }
                    }
                  }
                }
                JOINT RightFinger3
                {
                  OFFSET -0.6113 -8.7231 -2.0637
                  CHANNELS 6 Xposition Yposition Zposition Zrotation Xrotation Yrotation
                  JOINT RightFinger31
                  {
                    OFFSET 0.1927 -3.8059 -0.2383
                    CHANNELS 6 Xposition Yposition Zposition Zrotation Xrotation Yrotation
                    JOINT RightFinger32
                    {
                      OFFSET 0.1091 -2.1688 -0.1362
                      CHANNELS 6 Xposition Yposition Zposition Zrotation Xrotation Yrotation
                      End Site
                      {
                        OFFSET 0.2358 -1.9176 -0.0906
                      }
                    }
                  }
                }
                JOINT RightFinger4
                {
                  OFFSET 0.6151 -8.0947 -3.564
                  CHANNELS 6 Xposition Yposition Zposition Zrotation Xrotation Yrotation
                  JOINT RightFinger41
                  {
                    OFFSET 0.4882 -2.341 -0.6462
                    CHANNELS 6 Xposition Yposition Zposition Zrotation Xrotation Yrotation
                    JOINT RightFinger42
                    {
                      OFFSET 0.3574 -1.7166 -0.4742
                      CHANNELS 6 Xposition Yposition Zposition Zrotation Xrotation Yrotation
                      End Site
                      {
                        OFFSET 0.4187 -1.5237 -0.3496
                      }
                    }
                  }
                }
                JOINT RightFinger0
                {
                  OFFSET 1.4199 -1.8761 1.4221
                  CHANNELS 6 Xposition Yposition Zposition Zrotation Xrotation Yrotation
                  JOINT RightFinger01
                  {
                    OFFSET 1.1472 -3.4929 2.6336
                    CHANNELS 6 Xposition Yposition Zposition Zrotation Xrotation Yrotation
                    JOINT RightFinger02
                    {
                      OFFSET 0.8229 -2.3 1.6571
                      CHANNELS 6 Xposition Yposition Zposition Zrotation Xrotation Yrotation
                      End Site
                      {
                        OFFSET 0.5822 -1.6914 1.1582
                      }
                    }
                  }
                }
              }
            }
          }
        }
      }
    }
  }
  JOINT RightHip
  {
    OFFSET -9.412 3.9771 -0.7758
    CHANNELS 6 Xposition Yposition Zposition Zrotation Xrotation Yrotation
    JOINT RightKnee
    {
      OFFSET -0.7531 -40.938 0
      CHANNELS 6 Xposition Yposition Zposition Zrotation Xrotation Yrotation
      JOINT RightAnkle
      {
        OFFSET 0 -40.1986 0
        CHANNELS 6 Xposition Yposition Zposition Zrotation Xrotation Yrotation
        JOINT RightToe
        {
          OFFSET 0 -4.4182 9.239
          CHANNELS 6 Xposition Yposition Zposition Zrotation Xrotation Yrotation
          End Site
          {
            OFFSET 0 0 6.1981
          }
        }
      }
    }
  }
  JOINT LeftHip
  {
    OFFSET 9.4119 3.9773 -0.7758
    CHANNELS 6 Xposition Yposition Zposition Zrotation Xrotation Yrotation
    JOINT LeftKnee
    {
      OFFSET 0.7532 -40.9383 0
      CHANNELS 6 Xposition Yposition Zposition Zrotation Xrotation Yrotation
      JOINT LeftAnkle
      {
        OFFSET 0 -40.1986 0
        CHANNELS 6 Xposition Yposition Zposition Zrotation Xrotation Yrotation
        JOINT LeftToe
        {
          OFFSET 0 -4.4182 9.239
          CHANNELS 6 Xposition Yposition Zposition Zrotation Xrotation Yrotation
          End Site
          {
            OFFSET 0 0 6.1981
          }
        }
      }
    }
  }
}
MOTION
Frames:	4
Frame Time:	0.0333333
8.46731 18.5836 -32.4611 5.11461e-007 33.9971 -4.54411e-007 0 8.7983 -4.7612 0.875473 11.7803 -0.548855 0 8.0291 0.4195 1.93259 23.55 -1.32989 -8.88179e-016 9.9351 -2.2114 1.93259 23.5499 -1.32989 0 22.3885 -0.4656 0.304132 -1.57989 -0.0300017 -0.0001 12.643 3.4389 0.0317083 -1.78222 -0.0109885 2.2603 21.606 7.4023 -12.7907 -9.88987 -27.5914 13.5163 -1.1332 -5.0146 48.0851 -40.157 8.48579 -0.0995 -28.05 -0.2431 -2.91215 -29.504 17.904 0.0679 -23.3996 -0.1402 7.99913 3.41873 41.0029 0.7932 -9.069 2.5189 3.97569e-016 1.59028e-015 -6.36111e-015 -0.8272 -3.3923 0.5977 1.76556e-031 1.59028e-015 -6.36111e-015 -0.5649 -2.3158 0.4082 8.82781e-032 1.59028e-015 -3.18055e-015 0.9159 -9.2044 0.2193 3.97569e-016 1.59028e-015 -6.36111e-015 0.0117 -4.1944 -0.0248 -0.012806 0.00232352 9.19214e-005 0.0071 -2.3249 -0.0142 -3.97569e-016 -7.95139e-016 -0 0.6113 -8.7231 -2.0637 3.97569e-016 1.59028e-015 -6.36111e-015 -0.1927 -3.8059 -0.2383 -0.0160256 0.00299018 0.000858242 -0.1091 -2.1688 -0.1362 3.97569e-016 -1.59028e-015 6.36111e-015 -0.6151 -8.0947 -3.5641 3.97569e-016 1.59028e-015 -6.36111e-015 -0.4882 -2.341 -0.6462 -0.0126096 0.00312729 0.00283685 -0.3575 -1.7167 -0.4742 1.19271e-015 7.95139e-016 3.18055e-015 -1.42 -1.8761 1.4223 3.97569e-016 1.59028e-015 -6.36111e-015 -1.1471 -3.4929 2.6334 1.76556e-031 1.59028e-015 -6.36111e-015 -0.823 -2.3 1.6571 8.82781e-032 1.59028e-015 -3.18055e-015 -2.2603 21.606 7.4023 2.58082 -12.7809 23.1809 -13.5187 -1.1334 -5.0155 -53.0114 -53.07 -9.70331 0.0994 -28.0499 -0.2431 5.87525 -35.5318 -16.8112 -0.0679 -23.3996 -0.1402 -47.0474 10.0106 -28.1482 -0.7932 -9.0691 2.5189 8.82781e-032 -1.59028e-015 3.18055e-015 0.8272 -3.3923 0.5977 -5.53284e-006 -2.63533e-007 2.70305e-006 0.565 -2.3158 0.4082 2.38542e-015 -6.36111e-015 -3.18055e-015 -0.916 -9.2044 0.2193 8.82781e-032 -1.59028e-015 3.18055e-015 -0.0117 -4.1944 -0.0248 0.0129414 0.00231312 -8.96068e-005 -0.0071 -2.3249 -0.0142 -7.40281e-006 1.35609e-006 1.81687e-006 -0.6113 -8.7231 -2.0637 8.82781e-032 -1.59028e-015 3.18055e-015 0.1927 -3.8059 -0.2383 0.0163411 0.0030441 -0.000874286 0.1091 -2.1688 -0.1362 -3.18055e-015 -1.59028e-015 -3.18055e-015 0.6151 -8.0947 -3.564 8.82781e-032 -1.59028e-015 3.18055e-015 0.4882 -2.341 -0.6462 0.0145933 0.00368234 -0.00326677 0.3574 -1.7166 -0.4742 -4.77083e-015 0 3.18055e-015 1.4199 -1.8761 1.4221 8.82781e-032 -1.59028e-015 3.18055e-015 1.1472 -3.4929 2.6336 -5.53284e-006 -2.63533e-007 2.70305e-006 0.8229 -2.3 1.6571 2.38542e-015 -6.36111e-015 -3.18055e-015 -9.412 3.9771 -0.7758 -20.2967 -57.2486 -5.6637 -0.7531 -40.938 3.55271e-015 -173.834 49.6421 174.655 0 -40.1986 0 -11.4725 42.5171 13.421 0 -4.4182 9.239 3.49747e-008 -8.60229e-009 9.38821e-007 9.4119 3.9773 -0.7758 35.4006 -52.3308 -0.190917 0.7532 -40.9383 0 170.674 64.3442 -172.79 7.10543e-015 -40.1986 -3.55271e-015 18.5922 46.7324 -38.6076 0 -4.4182 9.239 -8.26482e-007 1.23e-007 -1.46785e-006 
8.46731 18.5836 -32.4611 2.00306e-008 33.9971 1.83159e-007 0 8.7983 -4.7612 0.875084 11.7919 -0.549201 1.77636e-015 8.0291 0.4195 1.93213 23.573 -1.33082 0 9.9351 -2.2114 1.93213 23.573 -1.33082 -8.88178e-016 22.3885 -0.4656 0.387827 -2.0066 -0.0282758 -0.0001 12.643 3.4389 0.0406426 -2.2639 -0.0126497 2.2603 21.606 7.4023 -12.7002 -9.91463 -27.6701 13.5163 -1.1332 -5.0146 48.6863 -40.3309 8.56709 -0.0995 -28.05 -0.2431 -2.90405 -29.4876 17.9089 0.0679 -23.3996 -0.1402 7.99932 3.15812 40.9917 0.7932 -9.069 2.5189 -3.97569e-016 7.95139e-016 3.18055e-015 -0.8272 -3.3923 0.5977 -1.98785e-016 1.59028e-015 -0 -0.5649 -2.3158 0.4082 3.97569e-016 -7.95139e-016 3.18055e-015 0.9159 -9.2044 0.2193 -3.97569e-016 7.95139e-016 3.18055e-015 0.0117 -4.1944 -0.0248 -0.0128174 0.00232246 8.17422e-005 0.0071 -2.3249 -0.0142 1.98785e-016 7.95139e-016 -3.18055e-015 0.6113 -8.7231 -2.0637 -3.97569e-016 7.95139e-016 3.18055e-015 -0.1927 -3.8059 -0.2383 -0.0160462 0.00299482 0.000855342 -0.1091 -2.1688 -0.1362 -1.98785e-016 -2.38542e-015 -3.18055e-015 -0.6151 -8.0947 -3.5641 -3.97569e-016 7.95139e-016 3.18055e-015 -0.4882 -2.341 -0.6462 -0.0125974 0.00312405 0.00282433 -0.3575 -1.7167 -0.4742 1.98785e-016 2.38542e-015 -0 -1.42 -1.8761 1.4223 -3.97569e-016 7.95139e-016 3.18055e-015 -1.1471 -3.4929 2.6334 -1.98785e-016 1.59028e-015 -0 -0.823 -2.3 1.6571 3.97569e-016 -7.95139e-016 3.18055e-015 -2.2603 21.606 7.4023 2.50525 -12.8028 23.1785 -13.5187 -1.1334 -5.0155 -53.7148 -53.249 -9.94264 0.0994 -28.0499 -0.2431 5.87483 -35.5317 -16.8116 -0.0679 -23.3996 -0.1402 -47.2267 10.0137 -28.0724 -0.7932 -9.0691 2.5189 -0 0 6.36111e-015 0.8272 -3.3923 0.5977 2.38542e-015 -1.59028e-015 6.36111e-015 0.565 -2.3158 0.4082 7.95139e-016 1.59028e-015 -0 -0.916 -9.2044 0.2193 -0 0 6.36111e-015 -0.0117 -4.1944 -0.0248 0.0129597 0.00231371 -8.39645e-005 -0.0071 -2.3249 -0.0142 2.38542e-015 1.59028e-015 3.18055e-015 -0.6113 -8.7231 -2.0637 -0 0 6.36111e-015 0.1927 -3.8059 -0.2383 0.0163397 0.00303984 -0.000870044 0.1091 -2.1688 -0.1362 -1.57206e-006 -2.97619e-006 -3.40113e-006 0.6151 -8.0947 -3.564 -0 0 6.36111e-015 0.4882 -2.341 -0.6462 0.0145848 0.00368459 -0.00325793 0.3574 -1.7166 -0.4742 -5.56597e-015 -1.59028e-015 -0 1.4199 -1.8761 1.4221 -0 0 6.36111e-015 1.1472 -3.4929 2.6336 2.38542e-015 -1.59028e-015 6.36111e-015 0.8229 -2.3 1.6571 7.95139e-016 1.59028e-015 -0 -9.412 3.9771 -0.7758 -20.2967 -57.2486 -5.6637 -0.7531 -40.938 0 -173.834 49.6421 174.655 4.44089e-016 -40.1986 0 -11.4725 42.5171 13.4209 -1.77636e-015 -4.4182 9.239 1.59028e-015 -1.77121e-009 4.77083e-015 9.4119 3.9773 -0.7758 35.4006 -52.3308 -0.190918 0.7532 -40.9383 0 170.674 64.3442 -172.79 0 -40.1986 -3.55271e-015 18.5923 46.7324 -38.6077 0 -4.4182 9.239 -8.26481e-007 -3.01282e-006 -1.46785e-006 
8.46731 18.5836 -32.4611 4.52296e-008 33.9971 -9.05597e-008 0 8.7983 -4.7612 0.874695 11.8034 -0.549547 0 8.0291 0.4195 1.93167 23.5961 -1.33175 8.88178e-016 9.9351 -2.2114 1.93167 23.5961 -1.33174 0 22.3885 -0.4656 0.462615 -2.38768 -0.0261223 -0.0001 12.643 3.4389 0.0486206 -2.69412 -0.0140574 2.2603 21.606 7.4023 -12.6195 -9.93679 -27.7404 13.5163 -1.1332 -5.0146 49.2254 -40.4856 8.64236 -0.0995 -28.05 -0.2431 -2.89575 -29.4711 17.9138 0.0679 -23.3996 -0.1402 7.99935 2.92541 40.9817 0.7932 -9.069 2.5189 -1.98785e-016 -1.19271e-015 -6.36111e-015 -0.8272 -3.3923 0.5977 3.97569e-016 -1.59028e-015 -6.36111e-015 -0.5649 -2.3158 0.4082 -5.96354e-016 -2.78299e-015 -0 0.9159 -9.2044 0.2193 -1.98785e-016 -1.19271e-015 -6.36111e-015 0.0117 -4.1944 -0.0248 -0.0128215 0.00232476 8.94616e-005 0.0071 -2.3249 -0.0142 -0 -1.19271e-015 -0 0.6113 -8.7231 -2.0637 -1.98785e-016 -1.19271e-015 -6.36111e-015 -0.1927 -3.8059 -0.2383 -0.0160225 0.00299195 0.000855657 -0.1091 -2.1688 -0.1362 1.98785e-016 1.59028e-015 -0 -0.6151 -8.0947 -3.5641 -1.98785e-016 -1.19271e-015 -6.36111e-015 -0.4882 -2.341 -0.6462 -0.0126 0.00312554 0.00283406 -0.3575 -1.7167 -0.4742 -1.98785e-016 1.19271e-015 -0 -1.42 -1.8761 1.4223 -1.98785e-016 -1.19271e-015 -6.36111e-015 -1.1471 -3.4929 2.6334 3.97569e-016 -1.59028e-015 -6.36111e-015 -0.823 -2.3 1.6571 -5.96354e-016 -2.78299e-015 -0 -2.2603 21.606 7.4023 2.44118 -12.8212 23.1764 -13.5187 -1.1334 -5.0155 -54.3478 -53.4069 -10.1615 0.0994 -28.0499 -0.2431 5.87457 -35.532 -16.812 -0.0679 -23.3996 -0.1402 -47.4059 10.0167 -27.9965 -0.7932 -9.0691 2.5189 -4.7744e-006 -8.75323e-007 4.76116e-007 0.8272 -3.3923 0.5977 -4.47984e-006 2.29193e-006 6.26212e-007 0.565 -2.3158 0.4082 4.77083e-015 -1.59028e-015 -6.36111e-015 -0.916 -9.2044 0.2193 -4.7744e-006 -8.75323e-007 4.76116e-007 -0.0117 -4.1944 -0.0248 0.012925 0.00231114 -8.72441e-005 -0.0071 -2.3249 -0.0142 2.88633e-006 5.32385e-007 -1.33751e-006 -0.6113 -8.7231 -2.0637 -4.7744e-006 -8.75323e-007 4.76116e-007 0.1927 -3.8059 -0.2383 0.0163229 0.00303879 -0.00086751 0.1091 -2.1688 -0.1362 -3.18055e-015 -1.59028e-015 -0 0.6151 -8.0947 -3.564 -4.7744e-006 -8.75323e-007 4.76116e-007 0.4882 -2.341 -0.6462 0.0145801 0.00368687 -0.00325845 0.3574 -1.7166 -0.4742 7.95139e-016 1.81639e-006 3.18055e-015 1.4199 -1.8761 1.4221 -4.7744e-006 -8.75323e-007 4.76116e-007 1.1472 -3.4929 2.6336 -4.47984e-006 2.29193e-006 6.26212e-007 0.8229 -2.3 1.6571 4.77083e-015 -1.59028e-015 -6.36111e-015 -9.412 3.9771 -0.7758 -20.2967 -57.2486 -5.66372 -0.7531 -40.938 -3.55271e-015 -173.834 49.642 174.655 4.44089e-016 -40.1986 0 -11.4725 42.517 13.4209 0 -4.4182 9.239 -8.91722e-008 4.8958e-006 -3.14472e-006 9.4119 3.9773 -0.7758 35.4014 -52.3305 -0.19037 0.7532 -40.9383 7.10543e-015 170.673 64.3444 -172.79 -3.55271e-015 -40.1986 0 18.5923 46.7324 -38.6077 0 -4.4182 9.239 -2.54089e-007 -1.85953e-006 3.0208e-006 
8.46731 18.5836 -32.4611 -1.0369e-007 33.9971 3.33085e-007 0 8.7983 -4.7612 0.874307 11.8149 -0.549893 0 8.0291 0.4195 1.93121 23.6192 -1.33268 1.77636e-015 9.9351 -2.2114 1.93121 23.6192 -1.33268 8.88179e-016 22.3885 -0.4656 0.537464 -2.76899 -0.0234644 -0.0001 12.643 3.4389 0.0565974 -3.1246 -0.0154086 2.2603 21.606 7.4023 -12.5387 -9.95915 -27.8106 13.5163 -1.1332 -5.0146 49.7666 -40.6396 8.71993 -0.0995 -28.05 -0.2431 -2.8877 -29.4547 17.9186 0.0679 -23.3996 -0.1402 7.9994 2.69269 40.9717 0.7932 -9.069 2.5189 4.41391e-032 7.95139e-016 -3.18055e-015 -0.8272 -3.3923 0.5977 -1.98785e-016 7.95139e-016 -3.18055e-015 -0.5649 -2.3158 0.4082 0 0 -3.18055e-015 0.9159 -9.2044 0.2193 4.41391e-032 7.95139e-016 -3.18055e-015 0.0117 -4.1944 -0.0248 -0.0128151 0.00232399 8.53022e-005 0.0071 -2.3249 -0.0142 5.96354e-016 -7.95139e-016 3.18055e-015 0.6113 -8.7231 -2.0637 4.41391e-032 7.95139e-016 -3.18055e-015 -0.1927 -3.8059 -0.2383 -0.0160267 0.00299058 0.000856632 -0.1091 -2.1688 -0.1362 -1.98785e-016 -3.97569e-016 3.18055e-015 -0.6151 -8.0947 -3.5641 4.41391e-032 7.95139e-016 -3.18055e-015 -0.4882 -2.341 -0.6462 -0.0126056 0.00312751 0.00283228 -0.3575 -1.7167 -0.4742 -7.02587e-006 5.97567e-007 -4.70857e-007 -1.42 -1.8761 1.4223 4.41391e-032 7.95139e-016 -3.18055e-015 -1.1471 -3.4929 2.6334 -1.98785e-016 7.95139e-016 -3.18055e-015 -0.823 -2.3 1.6571 0 0 -3.18055e-015 -2.2603 21.606 7.4023 2.37709 -12.8398 23.1743 -13.5187 -1.1334 -5.0155 -54.9844 -53.5641 -10.384 0.0994 -28.0499 -0.2431 5.87394 -35.5315 -16.8124 -0.0679 -23.3996 -0.1402 -47.5851 10.0194 -27.9206 -0.7932 -9.0691 2.5189 4.41391e-031 -7.95139e-015 3.18055e-015 0.8272 -3.3923 0.5977 -1.59028e-015 -3.18055e-015 9.54166e-015 0.565 -2.3158 0.4082 7.95139e-016 1.59028e-015 6.36111e-015 -0.916 -9.2044 0.2193 4.41391e-031 -7.95139e-015 3.18055e-015 -0.0117 -4.1944 -0.0248 0.0129386 0.00231605 -8.63895e-005 -0.0071 -2.3249 -0.0142 -7.95139e-016 -1.59028e-015 -0 -0.6113 -8.7231 -2.0637 4.41391e-031 -7.95139e-015 3.18055e-015 0.1927 -3.8059 -0.2383 0.0163311 0.00303336 -0.000878193 0.1091 -2.1688 -0.1362 1.59028e-015 4.77083e-015 3.18055e-015 0.6151 -8.0947 -3.564 4.41391e-031 -7.95139e-015 3.18055e-015 0.4882 -2.341 -0.6462 0.0145695 0.00367337 -0.00326381 0.3574 -1.7166 -0.4742 1.59028e-015 1.59028e-015 9.54166e-015 1.4199 -1.8761 1.4221 4.41391e-031 -7.95139e-015 3.18055e-015 1.1472 -3.4929 2.6336 -1.59028e-015 -3.18055e-015 9.54166e-015 0.8229 -2.3 1.6571 7.95139e-016 1.59028e-015 6.36111e-015 -9.412 3.9771 -0.7758 -20.2967 -57.2486 -5.66374 -0.7531 -40.938 3.55272e-015 -173.834 49.642 174.655 -4.44089e-016 -40.1986 0 -11.4725 42.517 13.4209 0 -4.4182 9.239 -7.95139e-016 1.77115e-009 -3.18055e-015 9.4119 3.9773 -0.7758 35.4017 -52.3304 -0.190098 0.7532 -40.9383 0 170.673 64.3446 -172.789 0 -40.1986 3.55271e-015 18.5923 46.7324 -38.6077 -7.10543e-015 -4.4182 9.239 4.53029e-007 -5.6033e-008 1.67261e-006 
